<svg width="99" height="69" viewBox="0 0 99 69" fill="none" xmlns="http://www.w3.org/2000/svg">
<path d="M60.8314 69C51.8193 69 47.3133 63.3837 47.3133 52.1512C47.3133 38.5116 52.4819 27.4128 62.8193 18.8546C73.4217 10.0291 84.1566 3.8779 95.0241 0.401155C95.8193 0.133717 96.6145 0 97.4097 0C98.4699 0 99 0.668609 99 2.00582C99 3.07559 96.2169 4.54651 90.6506 6.4186C85.3494 8.2907 79.3856 12.3023 72.759 18.4535C66.3976 24.3372 62.0241 31.4244 59.6386 39.7151C63.0844 37.3081 66.9277 36.1046 71.1687 36.1046C75.6747 36.1046 78.988 37.7093 81.1085 40.9186C83.494 44.1279 83.8916 48.0058 82.3012 52.5523C80.9759 57.0988 78.1928 60.9767 73.9518 64.186C69.7109 67.3953 65.3374 69 60.8314 69ZM13.5181 69C4.50605 69 0 63.3837 0 52.1512C0 38.5116 5.16871 27.4128 15.5061 18.8546C26.1085 10.0291 36.8434 3.8779 47.7108 0.401155C48.506 0.133717 49.3012 0 50.0964 0C51.1566 0 51.6867 0.668609 51.6867 2.00582C51.6867 3.07559 48.9036 4.54651 43.3373 6.4186C38.0361 8.2907 32.0723 12.3023 25.4458 18.4535C19.0843 24.3372 14.7109 31.4244 12.3253 39.7151C15.7711 37.3081 19.6145 36.1046 23.8554 36.1046C28.3614 36.1046 31.6747 37.7093 33.7952 40.9186C36.1807 44.1279 36.5783 48.0058 34.9879 52.5523C33.6626 57.0988 30.8795 60.9767 26.6386 64.186C22.3976 67.3953 18.0241 69 13.5181 69Z" fill="#3D3D3D"/>
</svg>
