<svg width="61" height="54" viewBox="0 0 61 54" fill="none" xmlns="http://www.w3.org/2000/svg">
<path d="M3.18011 27.1947H2.17138L1.43095 22.1695H0.902661V27.1947H0V11.3377H1.71381C1.91191 11.3277 2.10909 11.3937 2.29409 11.532C2.44355 11.6486 2.57782 11.8284 2.68719 12.0584C2.79007 12.2822 2.86609 12.5478 2.90973 12.8359C2.95809 13.1428 2.98194 13.4624 2.98045 13.7834V19.7237C2.99371 20.2533 2.92093 20.7775 2.77246 21.222C2.64282 21.5748 2.46376 21.8475 2.25665 22.0076L3.18011 27.1947ZM2.06531 13.7834C2.06667 13.611 2.03971 13.4421 1.98835 13.3016C1.9543 13.2274 1.91158 13.1703 1.86379 13.135C1.816 13.0998 1.76456 13.0875 1.71381 13.0991H0.902661V20.3878H1.71381C1.80403 20.3953 1.89284 20.3425 1.96547 20.238C2.00242 20.1703 2.0307 20.0867 2.04804 19.9939C2.06537 19.901 2.07129 19.8016 2.06531 19.7035V13.7834Z" fill="#FFCCBD"/>
<path d="M12.5476 11.3376V13.091H10.7402V16.3588H12.1025V18.1405H10.7402V25.4292H12.5476V27.1866H9.84375V11.3376H12.5476Z" fill="#FFCCBD"/>
<path d="M22.1572 24.7489C22.1587 25.0699 22.1348 25.3895 22.0864 25.6964C22.0465 25.9816 21.9756 26.2467 21.8785 26.4739C21.7729 26.7068 21.6402 26.8873 21.4916 27.0003C21.3059 27.1385 21.108 27.2046 20.9092 27.1947H19.0977V11.3376H20.8926C21.0914 11.3278 21.2892 11.3938 21.475 11.532C21.6232 11.6465 21.7556 11.8268 21.8618 12.0584C21.9585 12.2862 22.0294 12.5511 22.0698 12.8359C22.1182 13.1428 22.142 13.4624 22.1405 13.7834L22.1572 24.7489ZM20.9092 25.4373C20.9588 25.4474 21.0089 25.4348 21.0555 25.4003C21.1021 25.3659 21.1439 25.3105 21.1775 25.2389C21.2322 25.1009 21.2615 24.9312 21.2607 24.757V13.7834C21.2615 13.6092 21.2322 13.4395 21.1775 13.3015C21.1436 13.2293 21.1015 13.1734 21.0546 13.1383C21.0077 13.1032 20.9572 13.0897 20.9072 13.0991H20.017V25.4373H20.9092Z" fill="#FFCCBD"/>
<path d="M29.9601 24.2147C30.158 24.2056 30.355 24.2702 30.5404 24.405C30.6884 24.5205 30.8207 24.7006 30.9273 24.9314C31.0264 25.1591 31.1007 25.4236 31.1456 25.7089C31.1927 26.0164 31.2165 26.3356 31.2164 26.6564V27.7781C31.2365 28.3435 31.1691 28.9077 31.0229 29.3978C30.8982 29.7465 30.7186 30.0066 30.5113 30.1388C30.718 30.2862 30.8965 30.5533 31.0229 30.9042C31.1699 31.3937 31.2373 31.9583 31.2164 32.5239V37.6422C31.2215 38.0279 31.1876 38.4118 31.1165 38.7719C31.0577 39.0605 30.9651 39.3184 30.8461 39.5251C30.7292 39.7181 30.5934 39.8628 30.4468 39.9503C30.2888 40.0411 30.1248 40.0861 29.9601 40.0839H28.2109V24.2147H29.9601ZM30.3116 26.6443C30.3131 26.4736 30.2869 26.3064 30.2367 26.1665C30.2026 26.0912 30.1596 26.0332 30.1114 25.9972C30.0633 25.9612 30.0114 25.9485 29.9601 25.96H29.1157V29.252H29.7251C29.8024 29.2547 29.8791 29.2267 29.9507 29.1696C30.0222 29.1125 30.087 29.0276 30.1411 28.92C30.2002 28.7959 30.2459 28.6498 30.2752 28.4904C30.3045 28.331 30.3169 28.1617 30.3116 27.9927V26.6443ZM30.3116 32.2647C30.317 32.0963 30.3046 31.9276 30.2753 31.7688C30.2459 31.6101 30.2003 31.4647 30.1411 31.3415C30.0873 31.2331 30.0226 31.1477 29.951 31.0905C29.8794 31.0334 29.8025 31.0058 29.7251 31.0094H29.1157V38.2982H29.9601C30.0503 38.3057 30.1391 38.2528 30.2118 38.1483C30.2487 38.0807 30.277 37.997 30.2943 37.9042C30.3117 37.8114 30.3176 37.7119 30.3116 37.6138V32.2647Z" fill="#FFCCBD"/>
<path d="M40.0431 37.0306H38.4395L38.2523 40.0676H37.3496L38.2752 24.2146H40.199L41.1433 40.0676H40.2282L40.0431 37.0306ZM39.9495 35.4312L39.3858 25.972H39.0801L38.5289 35.4312H39.9495Z" fill="#FFCCBD"/>
<path d="M50.8202 40.0677H49.8115L49.071 35.0425H48.5199V40.0677H47.6172V24.2147H49.3539C49.5518 24.2056 49.7487 24.2702 49.9342 24.405C50.0832 24.523 50.2174 24.7026 50.3273 24.9314C50.4301 25.1552 50.5062 25.4208 50.5498 25.7089C50.5979 26.016 50.6217 26.3354 50.6205 26.6564V32.5968C50.6338 33.1263 50.561 33.6505 50.4125 34.095C50.2824 34.4469 50.1035 34.7193 49.8967 34.8806L50.8202 40.0677ZM49.7054 26.6564C49.7069 26.4858 49.6807 26.3186 49.6305 26.1786C49.5963 26.1034 49.5534 26.0453 49.5052 26.0094C49.457 25.9734 49.4051 25.9606 49.3539 25.9721H48.5219V33.2851H49.3539C49.4439 33.2895 49.5322 33.237 49.6055 33.1353C49.6424 33.0666 49.6706 32.9823 49.6879 32.8888C49.7052 32.7954 49.7112 32.6954 49.7054 32.5968V26.6564Z" fill="#FFCCBD"/>
<path d="M57.8066 40.0676V24.2146H58.7093V27.778L60.0488 30.4951V24.2146H60.9514V40.0676H60.0488V32.6209L58.7093 29.9929V40.0676H57.8066Z" fill="#FFCCBD"/>
<path d="M6.57053 10.9612C6.68284 13.7309 6.73484 16.5006 6.77851 19.2744C6.82219 22.0482 6.83467 24.8138 6.84299 27.5835C6.85131 30.3533 6.82843 33.123 6.78059 35.8927L6.70364 40.0473C6.65788 41.4321 6.63085 42.817 6.57053 44.2018C6.50814 42.817 6.4811 41.4321 6.43534 40.0473L6.36047 35.8927C6.31056 33.123 6.30224 30.3533 6.296 27.5835C6.28976 24.8138 6.31056 22.0441 6.36047 19.2744C6.41039 16.5047 6.45614 13.7309 6.57053 10.9612Z" fill="#FFCCBD"/>
<path d="M25.4299 2.12573C25.5443 4.89545 25.5962 7.66517 25.6378 10.4349C25.6794 13.2046 25.694 15.9743 25.7023 18.7481C25.7106 21.5219 25.6877 24.2875 25.6378 27.0573L25.563 31.2118C25.5172 32.5967 25.4902 33.9816 25.4278 35.3664C25.3675 33.9816 25.3405 32.5967 25.2947 31.2118L25.2198 27.0573C25.1699 24.2875 25.1616 21.5178 25.1554 18.7481C25.1491 15.9784 25.1699 13.2046 25.2198 10.4349C25.2698 7.66517 25.3176 4.89545 25.4299 2.12573Z" fill="#FFCCBD"/>
<path d="M34.8085 9.3457C34.8875 16.7721 34.9513 24.1958 34.9998 31.6168C35.0289 35.33 35.0893 39.0392 35.0539 42.7524C35.0185 46.4656 34.9645 50.1788 34.8085 53.888H34.7544C34.5984 50.1788 34.5588 46.4656 34.5089 42.7524C34.459 39.0392 34.5339 35.33 34.563 31.6168C34.6101 24.1904 34.6739 16.7667 34.7544 9.3457H34.8085Z" fill="#FFCCBD"/>
<path d="M44.7279 14.9983C44.807 20.5404 44.8707 26.0745 44.9193 31.6004C44.9484 34.3701 45.0087 37.1398 44.9733 39.9096C44.938 42.6793 44.8881 45.4854 44.7279 48.239H44.6801C44.522 45.4692 44.4846 42.6995 44.4347 39.9298C44.3848 37.1601 44.4597 34.3904 44.4888 31.6206C44.5359 26.0812 44.5997 20.5472 44.6801 15.0185L44.7279 14.9983Z" fill="#FFCCBD"/>
<path d="M54.076 -6.06201C54.155 2.25929 54.2195 8.45472 54.2673 16.776C54.2964 20.9347 54.3588 25.0973 54.3214 29.256C54.2839 33.4146 54.234 37.5773 54.076 41.7399H54.0219C53.8659 37.5773 53.8264 33.4186 53.7765 29.256C53.7266 25.0933 53.8015 20.9347 53.8306 16.776C53.8805 8.45472 53.9429 2.25929 54.0219 -6.06201H54.076Z" fill="#FFCCBD"/>
<path d="M16.4893 -6.06201C16.6016 -1.90338 16.6536 2.10137 16.6972 6.26405C16.7409 10.4267 16.7388 14.5854 16.7617 18.748C16.7388 22.9067 16.7409 27.0693 16.6993 31.228L16.6224 37.4679C16.5766 39.5493 16.5496 41.6306 16.4893 43.7119C16.4269 41.6306 16.3998 39.5493 16.3541 37.4679L16.2792 31.228C16.2355 27.0693 16.2376 22.9067 16.2168 18.748C16.2376 14.5854 16.2355 10.4267 16.2792 6.26405C16.3229 2.10137 16.3749 -1.89124 16.4893 -6.06201Z" fill="#FFCCBD"/>
</svg>
