<svg xmlns="http://www.w3.org/2000/svg" display="none">

<symbol id="i-logo" viewBox="0 0 91 23">
<path d="M0.642578 22.6187H9.28777C16.2546 22.6187 21.068 17.7582 21.068 11.4999V11.4364C21.068 5.17807 16.2546 0.381104 9.28777 0.381104H0.642578V22.6187ZM5.51935 18.2029V4.79685H9.28777C13.2779 4.79685 15.9696 7.56066 15.9696 11.4999V11.5634C15.9696 15.5027 13.2779 18.2029 9.28777 18.2029H5.51935Z" />
<path d="M34.6605 22.9681C40.6139 22.9681 44.3824 19.6643 44.3824 12.9294V0.381104H39.5056V13.1201C39.5056 16.6463 37.7005 18.4571 34.7238 18.4571C31.7471 18.4571 29.942 16.5828 29.942 12.9612V0.381104H25.0653V13.0883C25.0653 19.6325 28.707 22.9681 34.6605 22.9681Z" />
<path d="M49.3497 22.6187H57.9949C64.9617 22.6187 69.7751 17.7582 69.7751 11.4999V11.4364C69.7751 5.17807 64.9617 0.381104 57.9949 0.381104H49.3497V22.6187ZM54.2264 18.2029V4.79685H57.9949C61.985 4.79685 64.6767 7.56066 64.6767 11.4999V11.5634C64.6767 15.5027 61.985 18.2029 57.9949 18.2029H54.2264Z" />
<path d="M74.1207 22.6187H90.9994V18.2665H78.9658V13.5966H89.416V9.24436H78.9658V4.73331H90.8411V0.381104H74.1207V22.6187Z" />
</symbol>

<symbol id="i-user" viewBox="0 0 24 24">
<path fill-rule="evenodd" clip-rule="evenodd" d="M22.2861 6.06691C24.3786 9.74561 24.3786 14.2545 22.2861 17.9332L22.2151 18.0581C20.1256 21.7314 16.225 24.0002 11.999 24.0002C7.77309 24.0002 3.87246 21.7314 1.78303 18.0581L1.712 17.9332C-0.380507 14.2545 -0.380507 9.74561 1.712 6.06691L1.78303 5.94205C3.87246 2.26876 7.77309 -7.13528e-07 11.999 -5.26035e-07C16.225 -3.38541e-07 20.1256 2.26876 22.2151 5.94205L22.2861 6.06691ZM20.9013 17.1455C22.716 13.9552 22.716 10.0449 20.9013 6.85463L20.8302 6.72976C19.024 3.55441 15.6522 1.59319 11.999 1.59319C8.34593 1.59318 4.97405 3.55441 3.16786 6.72976L3.09683 6.85463C1.28213 10.0449 1.28213 13.9552 3.09683 17.1455L3.16786 17.2704C4.97405 20.4457 8.34593 22.407 11.999 22.407C15.6522 22.407 19.024 20.4457 20.8302 17.2704L20.9013 17.1455Z" />
<path fill-rule="evenodd" clip-rule="evenodd" d="M11.9992 6.53044C10.8817 6.53044 9.82676 7.04599 9.14017 7.92761L8.51168 7.43816L9.14017 7.92762L9.09631 7.98393L8.46783 7.49447L9.09631 7.98393C8.4049 8.87174 8.14626 10.022 8.39107 11.1203L8.41893 11.2454C8.6606 12.3296 9.38057 13.2459 10.3768 13.7372C11.3996 14.2415 12.5987 14.2415 13.6215 13.7372C14.6177 13.2459 15.3377 12.3296 15.5794 11.2454L15.6072 11.1203C15.852 10.022 15.5934 8.87174 14.902 7.98393L14.902 7.98392L14.8581 7.92762C14.8581 7.92761 14.8581 7.92761 14.8581 7.92761C14.1715 7.04599 13.1166 6.53044 11.9992 6.53044ZM7.8832 6.94871C8.87166 5.67947 10.3904 4.93726 11.9992 4.93726C13.6079 4.93726 15.1266 5.67947 16.1151 6.94871L16.1151 6.94871L16.159 7.00502C16.159 7.00502 16.159 7.00502 16.159 7.00503C17.1426 8.26804 17.5105 9.90443 17.1623 11.4669L16.3847 11.2936L17.1623 11.4669L17.1344 11.592C16.7878 13.1471 15.7551 14.4614 14.3261 15.166C12.8591 15.8895 11.1392 15.8895 9.6722 15.166C8.24322 14.4614 7.21054 13.1471 6.86391 11.592L6.83604 11.4669C6.48777 9.90443 6.85573 8.26804 7.83934 7.00502L7.83934 7.00502L7.8832 6.94871C7.8832 6.94871 7.8832 6.94871 7.8832 6.94871ZM7.69987 17.4018C10.4788 16.4019 13.5194 16.4019 16.2984 17.4018L16.9367 17.6314C18.2069 18.0885 19.243 18.9597 19.9146 20.0594C20.1163 20.3897 20.0514 20.8172 19.7607 21.0728C17.6473 22.931 14.8998 24.0001 11.9989 24.0001C9.09817 24.0001 6.35082 22.9311 4.23745 21.0731C3.94677 20.8175 3.88185 20.39 4.08355 20.0597C4.7551 18.9599 5.79123 18.0885 7.06155 17.6314L7.69987 17.4018ZM15.759 18.9009C13.3287 18.0264 10.6696 18.0264 8.23925 18.9009L7.60094 19.1305C6.90686 19.3803 6.30941 19.8004 5.84871 20.3341C7.58898 21.6572 9.74023 22.4069 11.9989 22.4069C14.2577 22.4069 16.4091 21.6571 18.1494 20.3338C17.6887 19.8003 17.0913 19.3802 16.3974 19.1305L15.759 18.9009Z" />
</symbol>

<symbol id="i-search" viewBox="0 0 23 24">
<path fill-rule="evenodd" clip-rule="evenodd" d="M13.9454 14.6191C14.3284 14.2212 14.9511 14.223 15.3362 14.6231L21.4806 21.007C21.8657 21.4071 21.8674 22.054 21.4845 22.4519C21.1015 22.8498 20.4788 22.848 20.0937 22.4479L13.9492 16.064C13.5641 15.6639 13.5624 15.017 13.9454 14.6191Z" />
<path fill-rule="evenodd" clip-rule="evenodd" d="M8.80452 15.5114C12.5356 15.5114 15.5602 12.4868 15.5602 8.75569C15.5602 5.02462 12.5356 2 8.80452 2C5.07345 2 2.04883 5.02462 2.04883 8.75569C2.04883 12.4868 5.07345 15.5114 8.80452 15.5114ZM8.80452 17.5114C13.6401 17.5114 17.5602 13.5913 17.5602 8.75569C17.5602 3.92005 13.6401 0 8.80452 0C3.96888 0 0.0488281 3.92005 0.0488281 8.75569C0.0488281 13.5913 3.96888 17.5114 8.80452 17.5114Z" />
</symbol>

<symbol id="i-microphone" viewBox="0 0 12 21">
<path fill-rule="evenodd" clip-rule="evenodd" d="M5.99967 1.69466C4.71101 1.69466 3.66634 2.73933 3.66634 4.02799L3.66634 10.028C3.66634 11.3167 4.71101 12.3613 5.99967 12.3613C7.28834 12.3613 8.33301 11.3167 8.33301 10.028L8.33301 4.02799C8.33301 2.73933 7.28834 1.69466 5.99967 1.69466ZM2.33301 4.02799C2.33301 2.00295 3.97463 0.361328 5.99967 0.361328C8.02472 0.361328 9.66634 2.00295 9.66634 4.02799L9.66634 10.028C9.66634 12.053 8.02472 13.6947 5.99967 13.6947C3.97463 13.6947 2.33301 12.053 2.33301 10.028L2.33301 4.02799Z" />
<path fill-rule="evenodd" clip-rule="evenodd" d="M0.666667 7.02808C1.03486 7.02808 1.33333 7.32655 1.33333 7.69474L1.33333 10.3614C1.33333 12.9387 3.42267 15.0281 6 15.0281C8.57733 15.0281 10.6667 12.9387 10.6667 10.3614V7.69474C10.6667 7.32655 10.9651 7.02808 11.3333 7.02808C11.7015 7.02808 12 7.32655 12 7.69474V10.3614C12 13.4498 9.66663 15.9932 6.66667 16.3248V18.6947H9.33333C9.70152 18.6947 10 18.9932 10 19.3614C10 19.7296 9.70152 20.0281 9.33333 20.0281H2.66667C2.29848 20.0281 2 19.7296 2 19.3614C2 18.9932 2.29848 18.6947 2.66667 18.6947H5.33333V16.3248C2.33337 15.9932 0 13.4498 0 10.3614L0 7.69474C0 7.32655 0.298477 7.02808 0.666667 7.02808Z" />
<path fill-rule="evenodd" clip-rule="evenodd" d="M5.66699 4.69474C5.66699 4.32655 5.96547 4.02808 6.33366 4.02808L9.00033 4.02808C9.36852 4.02808 9.66699 4.32655 9.66699 4.69474C9.66699 5.06293 9.36852 5.36141 9.00033 5.36141H6.33366C5.96547 5.36141 5.66699 5.06293 5.66699 4.69474ZM5.66699 7.02808C5.66699 6.65989 5.96547 6.36141 6.33366 6.36141H9.00033C9.36852 6.36141 9.66699 6.65989 9.66699 7.02808C9.66699 7.39627 9.36852 7.69474 9.00033 7.69474H6.33366C5.96547 7.69474 5.66699 7.39627 5.66699 7.02808ZM5.66699 9.36141C5.66699 8.99322 5.96547 8.69474 6.33366 8.69474H9.00033C9.36852 8.69474 9.66699 8.99322 9.66699 9.36141C9.66699 9.7296 9.36852 10.0281 9.00033 10.0281H6.33366C5.96547 10.0281 5.66699 9.7296 5.66699 9.36141Z" />
</symbol>

<symbol id="i-light" viewBox="0 0 26 26">
<path fill-rule="evenodd" clip-rule="evenodd" d="M13 0C13.5114 0 13.9266 0.413553 13.9286 0.924985L13.9429 4.64512C13.9441 4.95588 13.7898 5.24663 13.5317 5.41978C13.3743 5.52541 13.191 5.57872 13.0069 5.57725C12.8181 5.58155 12.6296 5.52824 12.4683 5.42C12.2102 5.24685 12.0559 4.95609 12.0571 4.64533L12.0714 0.924985C12.0734 0.413553 12.4886 0 13 0ZM3.80761 3.80761C4.16925 3.44597 4.75523 3.44484 5.11827 3.80508L7.75911 6.4256C7.9797 6.64449 8.07617 6.95922 8.01613 7.26413C7.97937 7.4508 7.88693 7.61864 7.75488 7.74803C7.62461 7.88379 7.45417 7.97884 7.26423 8.01624C6.95932 8.07627 6.6446 7.9798 6.4257 7.75922L3.80508 5.11827C3.44484 4.75523 3.44597 4.16925 3.80761 3.80761ZM22.1924 3.80761C22.554 4.16925 22.5552 4.75523 22.1949 5.11827L19.5747 7.75885C19.3558 7.97945 19.041 8.07591 18.7361 8.01587C18.5494 7.97911 18.3816 7.88668 18.2522 7.75464C18.1165 7.62437 18.0214 7.45393 17.984 7.26399C17.924 6.95908 18.0204 6.64435 18.241 6.42545L20.8817 3.80508C21.2448 3.44484 21.8307 3.44597 22.1924 3.80761ZM5.57753 13C5.5804 12.8135 5.52708 12.6276 5.42014 12.4682C5.24699 12.2102 4.95623 12.0559 4.64548 12.0571L0.924985 12.0714C0.413553 12.0734 0 12.4886 0 13C0 13.5114 0.413553 13.9266 0.924985 13.9286L4.64548 13.9429C4.95623 13.9441 5.24699 13.7898 5.42014 13.5318C5.52708 13.3724 5.5804 13.1865 5.57753 13ZM20.5804 12.4682C20.7535 12.2102 21.0443 12.0559 21.355 12.0571L25.075 12.0714C25.5864 12.0734 26 12.4886 26 13C26 13.5114 25.5864 13.9266 25.075 13.9286L21.355 13.9429C21.0443 13.9441 20.7535 13.7898 20.5804 13.5318C20.4734 13.3724 20.4201 13.1865 20.423 13C20.4201 12.8135 20.4734 12.6276 20.5804 12.4682ZM7.75487 18.2519C7.62459 18.1162 7.45416 18.0212 7.26423 17.9838C6.95932 17.9237 6.6446 18.0202 6.4257 18.2408L3.80508 20.8817C3.44484 21.2448 3.44597 21.8307 3.80761 22.1924C4.16925 22.554 4.75523 22.5552 5.11827 22.1949L7.75911 19.5744C7.9797 19.3555 8.07617 19.0408 8.01613 18.7359C7.97937 18.5492 7.88693 18.3813 7.75487 18.2519ZM18.7361 17.9841C19.041 17.9241 19.3558 18.0206 19.5747 18.2411L22.1949 20.8817C22.5552 21.2448 22.554 21.8307 22.1924 22.1924C21.8307 22.554 21.2448 22.5552 20.8817 22.1949L18.241 19.5745C18.0205 19.3557 17.924 19.0409 17.984 18.736C18.0214 18.5461 18.1165 18.3757 18.2522 18.2454C18.3816 18.1133 18.5494 18.0209 18.7361 17.9841ZM13.0068 20.4228C12.8181 20.4185 12.6296 20.4718 12.4682 20.58C12.2102 20.7532 12.0559 21.0439 12.0571 21.3547L12.0714 25.075C12.0734 25.5864 12.4886 26 13 26C13.5114 26 13.9266 25.5864 13.9286 25.075L13.9429 21.3549C13.9441 21.0441 13.7898 20.7534 13.5317 20.5802C13.3743 20.4746 13.191 20.4213 13.0068 20.4228Z" />
<path fill-rule="evenodd" clip-rule="evenodd" d="M10.5126 6.99478C12.1052 6.33507 13.8948 6.33507 15.4874 6.99478C17.0801 7.65449 18.3455 8.91987 19.0052 10.5126C19.6649 12.1052 19.6649 13.8948 19.0052 15.4874C18.3455 17.0801 17.0801 18.3455 15.4874 19.0052C13.8948 19.6649 12.1052 19.6649 10.5126 19.0052C8.91988 18.3455 7.65449 17.0801 6.99478 15.4874C6.33507 13.8948 6.33507 12.1052 6.99478 10.5126C7.65449 8.91988 8.91987 7.65449 10.5126 6.99478ZM14.7271 8.83032C13.6213 8.37226 12.3787 8.37226 11.2729 8.83032C10.167 9.28839 9.28839 10.167 8.83032 11.2729C8.37226 12.3787 8.37226 13.6213 8.83032 14.7271C9.28839 15.833 10.167 16.7116 11.2729 17.1697C12.3787 17.6277 13.6213 17.6277 14.7271 17.1697C15.833 16.7116 16.7116 15.833 17.1697 14.7271C17.6277 13.6213 17.6277 12.3787 17.1697 11.2729C16.7116 10.167 15.833 9.28839 14.7271 8.83032Z" />
</symbol>

<symbol id="i-dark" viewBox="0 0 18 24">
<path fill-rule="evenodd" clip-rule="evenodd" d="M16.0233 2.50471C13.4908 1.46159 10.6452 1.46159 8.11262 2.5047C5.58004 3.54782 3.56792 5.54861 2.51889 8.06692C1.46987 10.5852 1.46987 13.4148 2.51889 15.9331C3.56792 18.4514 5.58004 20.4522 8.11262 21.4953C10.6452 22.5384 13.4908 22.5384 16.0233 21.4953C16.0957 21.4655 16.1676 21.4349 16.2391 21.4036C16.23 21.3888 16.2187 21.3737 16.2049 21.3593C16.1731 21.3259 16.1377 21.3056 16.102 21.2963C15.6827 21.1865 15.2691 21.0482 14.864 20.8814C12.4952 19.9057 10.6132 18.0343 9.632 15.6788C8.6508 13.3233 8.6508 10.6767 9.632 8.32123C10.6132 5.96575 12.4952 4.09433 14.864 3.11865C15.2691 2.95182 15.6827 2.81351 16.1021 2.70372C16.1377 2.69438 16.1731 2.67411 16.205 2.64068C16.2187 2.62627 16.23 2.61117 16.2391 2.59645C16.1676 2.56509 16.0957 2.53451 16.0233 2.50471ZM16.268 2.52167C16.268 2.52167 16.268 2.52213 16.2679 2.52309C16.2679 2.52216 16.268 2.52168 16.268 2.52167ZM16.268 21.4783C16.2679 21.4783 16.2679 21.4779 16.2679 21.4769C16.268 21.4779 16.268 21.4783 16.268 21.4783ZM7.44976 0.913445C10.4068 -0.304482 13.7292 -0.304482 16.6862 0.913446C16.8112 0.964926 16.9351 1.01841 17.0579 1.07385C17.4438 1.24811 17.7305 1.54309 17.8816 1.91124C18.0271 2.26601 18.0262 2.63622 17.9452 2.95709C17.787 3.58273 17.2836 4.17543 16.5431 4.36931C16.199 4.45941 15.8595 4.57294 15.5269 4.70991C13.5825 5.51078 12.0377 7.0469 11.2323 8.98035C10.4269 10.9138 10.4269 13.0862 11.2323 15.0197C12.0377 16.9531 13.5825 18.4892 15.5269 19.2901C15.8594 19.4271 16.199 19.5406 16.5431 19.6307C17.2836 19.8246 17.787 20.4173 17.9451 21.0429C18.0262 21.3638 18.0271 21.734 17.8815 22.0888C17.7305 22.4569 17.4438 22.7519 17.0578 22.9262C16.9351 22.9816 16.8112 23.0351 16.6862 23.0866C13.7292 24.3045 10.4068 24.3045 7.44976 23.0866C4.49277 21.8686 2.14345 19.5325 0.91862 16.5922C-0.306207 13.6519 -0.306207 10.3481 0.91862 7.4078C2.14345 4.46746 4.49277 2.13137 7.44976 0.913445Z" />
</symbol>

<symbol id="i-close" viewBox="0 0 10 10" fill="none">
<path d="M1.46409 8.53542L8.53516 1.46436" stroke-width="1.5" stroke-linecap="round"/>
<path d="M1.46409 1.46458L8.53516 8.53564" stroke-width="1.5" stroke-linecap="round"/>
</symbol>

<symbol id="i-arrow" viewBox="0 0 6 10" fill="none">
<path d="M1 1.5L4.5 5L1 8.5" stroke-width="1.5" stroke-linecap="round" stroke-linejoin="round"/>
</symbol>

<symbol id="i-rubric" viewBox="0 0 24 24">
<path fill-rule="evenodd" clip-rule="evenodd" d="M2.06172 4.33019C1.577 4.81724 1.41176 5.24815 1.41176 5.59995C1.41176 5.95174 1.577 6.38266 2.06172 6.86971C2.54561 7.35593 3.2861 7.83034 4.2617 8.24497C6.20771 9.07202 8.94345 9.59991 12 9.59991C15.0565 9.59991 17.7923 9.07202 19.7383 8.24497C20.7139 7.83034 21.4544 7.35593 21.9383 6.86971C22.423 6.38266 22.5882 5.95174 22.5882 5.59995C22.5882 5.24815 22.423 4.81724 21.9383 4.33019C21.4544 3.84397 20.7139 3.36955 19.7383 2.95492C17.7923 2.12788 15.0565 1.59999 12 1.59999C8.94345 1.59999 6.20771 2.12788 4.2617 2.95492C3.2861 3.36955 2.54561 3.84397 2.06172 4.33019ZM3.766 1.45681C5.90766 0.546613 8.81898 0 12 0C15.181 0 18.0923 0.546613 20.234 1.45681C21.3022 1.9108 22.2157 2.47069 22.8749 3.13299C23.5332 3.79446 24 4.62627 24 5.59995C24 6.57363 23.5332 7.40544 22.8749 8.06691C22.2157 8.72921 21.3022 9.28909 20.234 9.74309C18.0923 10.6533 15.181 11.1999 12 11.1999C8.81898 11.1999 5.90766 10.6533 3.766 9.74309C2.69778 9.28909 1.78427 8.72921 1.12514 8.06691C0.466835 7.40544 0 6.57363 0 5.59995C0 4.62627 0.466835 3.79446 1.12514 3.13299C1.78427 2.47069 2.69778 1.9108 3.766 1.45681Z"/>
<path fill-rule="evenodd" clip-rule="evenodd" d="M5.32186 8.63984C7.14967 9.23659 9.46555 9.59976 12.0007 9.59976C14.5358 9.59976 16.8517 9.23658 18.6795 8.63983C18.3394 8.20272 17.7595 7.74881 16.8998 7.35414C15.6268 6.76964 13.9103 6.39979 12.0007 6.39979C10.091 6.39979 8.37455 6.76964 7.10148 7.35414C6.24184 7.74882 5.66194 8.20273 5.32186 8.63984ZM6.5714 5.87122C8.04283 5.19566 9.94473 4.7998 12.0007 4.7998C14.0566 4.7998 15.9585 5.19565 17.4299 5.87121C18.8539 6.52498 20.0641 7.53333 20.389 8.90055C20.4852 9.30509 20.2896 9.72518 19.9407 9.86365C17.8318 10.7007 15.0404 11.1997 12.0007 11.1997C8.96096 11.1997 6.16954 10.7007 4.0606 9.86367C3.71171 9.72519 3.51617 9.30511 3.61232 8.90057C3.93726 7.53335 5.14745 6.52499 6.5714 5.87122Z" />
<path fill-rule="evenodd" clip-rule="evenodd" d="M20.3404 7.96708C20.5794 7.847 20.8574 7.88648 21.0629 8.0697C21.7258 8.66075 22.2352 9.44413 22.2352 10.4001C22.2352 11.2673 21.8141 11.9947 21.2455 12.559C20.6755 13.1246 19.8914 13.5976 18.9834 13.9787C17.162 14.7433 14.6928 15.2001 11.9999 15.2001C9.30707 15.2001 6.83791 14.7433 5.01647 13.9787C4.10847 13.5976 3.32437 13.1246 2.75438 12.559C2.18576 11.9947 1.76465 11.2673 1.76465 10.4001C1.76465 9.44413 2.27405 8.66075 2.93695 8.0697C3.14244 7.88648 3.42045 7.847 3.65948 7.96708C5.61463 8.94936 8.60567 9.60014 11.9999 9.60014C15.3942 9.60014 18.3853 8.94936 20.3404 7.96708ZM20.4878 9.63209C18.3204 10.6109 15.302 11.2001 11.9999 11.2001C8.69786 11.2001 5.67953 10.6109 3.51209 9.63209C3.25621 9.94015 3.17641 10.2017 3.17641 10.4001C3.17641 10.6375 3.28861 10.9624 3.68442 11.3552C4.07886 11.7467 4.6903 12.1356 5.50679 12.4783C7.13432 13.1615 9.42986 13.6001 11.9999 13.6001C14.57 13.6001 16.8656 13.1615 18.4931 12.4783C19.3096 12.1356 19.921 11.7467 20.3155 11.3552C20.7113 10.9624 20.8235 10.6375 20.8235 10.4001C20.8235 10.2017 20.7437 9.94015 20.4878 9.63209Z"/>
<path fill-rule="evenodd" clip-rule="evenodd" d="M18.9023 12.2944C19.101 12.1989 19.3272 12.2118 19.5165 12.3292C20.3794 12.8643 21.1765 13.6776 21.1765 14.7997C21.1765 15.5624 20.7993 16.1856 20.3206 16.6519C19.8397 17.1205 19.1851 17.5062 18.4376 17.8143C16.9368 18.4328 14.9103 18.7997 12.7059 18.7997C10.5016 18.7997 8.47504 18.4328 6.97423 17.8143C6.22673 17.5062 5.57215 17.1205 5.09124 16.6519C4.61263 16.1856 4.23535 15.5624 4.23535 14.7997C4.23535 13.9372 4.71449 13.2563 5.2905 12.7663C5.47438 12.6099 5.71395 12.5648 5.93257 12.6454C7.52607 13.2329 9.64989 13.5997 12.0001 13.5997C14.7994 13.5997 17.2673 13.0795 18.9023 12.2944ZM19.1174 13.9211C17.2802 14.7216 14.7546 15.1997 12.0001 15.1997C9.70883 15.1997 7.58241 14.8691 5.87947 14.3014C5.68902 14.527 5.64712 14.6986 5.64712 14.7997C5.64712 14.9207 5.70439 15.1393 6.0116 15.4387C6.31653 15.7358 6.79906 16.0396 7.45669 16.3106C8.76616 16.8503 10.622 17.1997 12.7059 17.1997C14.7899 17.1997 16.6457 16.8503 17.9552 16.3106C18.6128 16.0396 19.0954 15.7358 19.4003 15.4387C19.7075 15.1393 19.7648 14.9207 19.7648 14.7997C19.7648 14.6389 19.6487 14.3153 19.1174 13.9211Z"/>
<path fill-rule="evenodd" clip-rule="evenodd" d="M8.51883 16.8409C8.65624 16.7697 8.81016 16.7504 8.95795 16.7858C10.0502 17.0473 11.3314 17.1996 12.7066 17.1996C14.0819 17.1996 15.3631 17.0473 16.4553 16.7858C16.6031 16.7504 16.757 16.7697 16.8944 16.8409C17.2681 17.0343 17.6129 17.2754 17.874 17.5766C18.1379 17.8811 18.3537 18.2942 18.3537 18.7996C18.3537 19.4025 18.0498 19.8688 17.7149 20.1893C17.3767 20.5129 16.9292 20.7683 16.438 20.9671C15.4494 21.3673 14.1301 21.5995 12.7066 21.5995C11.2832 21.5995 9.96386 21.3673 8.97528 20.9671C8.48406 20.7683 8.03654 20.5129 7.69835 20.1893C7.36344 19.8688 7.05957 19.4025 7.05957 18.7996C7.05957 18.2942 7.27536 17.8811 7.53929 17.5766C7.8004 17.2754 8.14513 17.0343 8.51883 16.8409ZM8.90883 18.4071C8.73715 18.5131 8.61953 18.6135 8.5464 18.6979C8.50379 18.747 8.48427 18.7807 8.47571 18.7993C8.48754 18.8258 8.52081 18.8823 8.60916 18.9668C8.77104 19.1217 9.04714 19.2973 9.4501 19.4604C10.2499 19.7841 11.4012 19.9995 12.7066 19.9995C14.0121 19.9995 15.1634 19.7841 15.9632 19.4604C16.3661 19.2973 16.6422 19.1217 16.8041 18.9668C16.8924 18.8823 16.9257 18.8258 16.9375 18.7993C16.929 18.7807 16.9095 18.747 16.8669 18.6979C16.7937 18.6135 16.6761 18.5131 16.5044 18.4071C15.3647 18.6588 14.0722 18.7996 12.7066 18.7996C11.3411 18.7996 10.0485 18.6588 8.90883 18.4071ZM16.9437 18.8166C16.9436 18.8166 16.9432 18.8152 16.9427 18.8124C16.9436 18.8152 16.9438 18.8166 16.9437 18.8166ZM16.9428 18.7857C16.9431 18.7832 16.9435 18.782 16.9436 18.782C16.9437 18.782 16.9435 18.7832 16.9428 18.7857ZM8.46967 18.782C8.46975 18.782 8.47011 18.7832 8.47047 18.7857C8.46976 18.7832 8.46958 18.782 8.46967 18.782ZM8.47052 18.8124C8.4701 18.8152 8.46966 18.8166 8.46954 18.8166C8.46942 18.8166 8.46963 18.8152 8.47052 18.8124Z" />
<path fill-rule="evenodd" clip-rule="evenodd" d="M8.33323 19.357C8.54279 19.1814 8.8207 19.1509 9.0561 19.2777C9.83009 19.6948 11.1509 20.0002 12.7062 20.0002C13.2593 20.0002 13.7877 19.9614 14.2754 19.8911C14.5773 19.8476 14.8698 20.0282 15.0011 20.3393C15.1124 20.6027 15.1768 20.8929 15.1768 21.2001C15.1768 22.1749 14.5576 22.8891 13.8834 23.3137C13.1852 23.7533 12.2685 24.0001 11.2945 24.0001C10.3204 24.0001 9.40373 23.7533 8.70555 23.3137C8.03128 22.8891 7.41211 22.1749 7.41211 21.2001C7.41211 20.4067 7.8293 19.7795 8.33323 19.357ZM8.90746 20.94C8.84113 21.0505 8.82387 21.1404 8.82387 21.2001C8.82387 21.33 8.91578 21.6157 9.39117 21.915C9.84264 22.1993 10.5142 22.4001 11.2945 22.4001C12.0748 22.4001 12.7463 22.1993 13.1978 21.915C13.3895 21.7943 13.5189 21.6757 13.605 21.5688C13.3124 21.5894 13.0121 21.6001 12.7062 21.6001C11.2614 21.6001 9.91156 21.3606 8.90746 20.94Z"/>
</symbol>

<symbol id="i-facebook" viewBox="0 0 11 22">
<path d="M3.19583 22V12.1602H0V8.25H3.19583V5.16914C3.19583 1.82188 5.17917 0 8.075 0C9.4625 0 10.6542 0.107422 11 0.154687V3.65234H8.99167C7.41667 3.65234 7.1125 4.42578 7.1125 5.55586V8.25H10.6667L10.1792 12.1602H7.1125V22" />
</symbol>

<symbol id="i-telegram" viewBox="0 0 20 16">
<path d="M19.943 1.45659L16.9249 15.0342C16.6972 15.9924 16.1034 16.2309 15.2596 15.7795L10.6609 12.5469L8.44199 14.5827C8.19643 14.817 7.99105 15.0129 7.5178 15.0129L7.84819 10.5452L16.3713 3.19851C16.7418 2.88334 16.2909 2.70873 15.7953 3.02389L5.25867 9.35271L0.72255 7.99836C-0.264145 7.70449 -0.282004 7.05713 0.927925 6.60568L18.6706 0.0852048C19.4921 -0.208664 20.2109 0.259822 19.943 1.45659Z" />
</symbol>

<symbol id="i-twitter" viewBox="0 0 20 16">
<path d="M17.9442 3.98749C17.9569 4.16248 17.9569 4.33751 17.9569 4.5125C17.9569 9.84997 13.8326 16 6.29444 16C3.97209 16 1.81473 15.3375 0 14.1875C0.329962 14.225 0.64719 14.2375 0.989848 14.2375C2.90607 14.2375 4.67006 13.6 6.0787 12.5125C4.27666 12.475 2.7665 11.3125 2.24618 9.7125C2.50001 9.74997 2.7538 9.77498 3.02032 9.77498C3.38833 9.77498 3.75638 9.72496 4.099 9.63751C2.22083 9.26247 0.812152 7.63749 0.812152 5.67499V5.62501C1.35782 5.92501 1.99239 6.11251 2.66493 6.13748C1.56087 5.41247 0.837542 4.17498 0.837542 2.77497C0.837542 2.02499 1.04055 1.33749 1.3959 0.737481C3.41369 3.18748 6.4467 4.78745 9.8477 4.96248C9.78426 4.66248 9.74617 4.35001 9.74617 4.03751C9.74617 1.81248 11.5736 2.81811e-08 13.8452 2.81811e-08C15.0254 2.81811e-08 16.0914 0.487499 16.8401 1.275C17.7665 1.10001 18.6548 0.762491 19.4416 0.300002C19.137 1.23752 18.4898 2.02502 17.6396 2.52499C18.4645 2.43753 19.264 2.21248 20 1.90001C19.4417 2.69998 18.7437 3.41245 17.9442 3.98749Z"/>
</symbol>

<symbol id="i-vk" viewBox="0 0 24 12" >
    <path fill-rule="evenodd" clip-rule="evenodd" d="M20.6554 7.63015C21.4515 8.31689 22.2918 8.96301 23.0058 9.719C23.3212 10.0549 23.6199 10.4016 23.8483 10.7915C24.172 11.3457 23.8788 11.9556 23.3163 11.9887L19.82 11.9873C18.9182 12.0534 18.1988 11.7327 17.5939 11.1879C17.1098 10.7523 16.6615 10.2886 16.1961 9.83828C16.0052 9.65421 15.8055 9.48101 15.5669 9.3441C15.0896 9.07037 14.6753 9.15418 14.4025 9.59401C14.1247 10.0414 14.0617 10.5367 14.0344 11.0353C13.997 11.7627 13.7481 11.954 12.9211 11.9873C11.1537 12.0609 9.47629 11.8246 7.91806 11.0369C6.54426 10.3424 5.47894 9.36201 4.5517 8.25209C2.74634 6.09085 1.36379 3.716 0.121208 1.27462C-0.158487 0.72457 0.0460603 0.429308 0.732957 0.418858C1.87358 0.39928 3.01405 0.400674 4.15601 0.417464C4.61959 0.423456 4.92649 0.658384 5.10549 1.04533C5.7226 2.386 6.47771 3.66152 7.42553 4.84382C7.67794 5.15859 7.93532 5.47336 8.30184 5.69492C8.7073 5.94022 9.01602 5.85892 9.20677 5.45985C9.32781 5.20681 9.3808 4.93426 9.40808 4.66324C9.49845 3.73084 9.51035 2.80005 9.35186 1.87093C9.25455 1.29106 8.88488 0.915676 8.23 0.805945C7.89582 0.75 7.94558 0.640131 8.10738 0.471598C8.38842 0.180934 8.65274 -9.35514e-08 9.17964 -9.35514e-08H13.1311C13.7532 0.108476 13.8913 0.355388 13.9765 0.90843L13.9799 4.78649C13.9731 5.00058 14.1009 5.6359 14.5374 5.77761C14.8867 5.8785 15.117 5.63159 15.3265 5.43588C16.2726 4.5487 16.9479 3.50023 17.5511 2.41456C17.8188 1.93718 18.049 1.44141 18.2721 0.946052C18.4373 0.578472 18.6967 0.397608 19.1653 0.40562L22.9684 0.408616C23.0811 0.408616 23.1952 0.410079 23.3044 0.426591C23.9453 0.523084 24.1209 0.766652 23.923 1.31955C23.6111 2.18702 23.0043 2.90992 22.411 3.63616C21.7768 4.41152 21.0985 5.16034 20.4696 5.94029C19.8917 6.65253 19.9376 7.01154 20.6554 7.63015Z"/>
</symbol>

<symbol id="i-top" viewBox="0 0 19 24">
    <path fill-rule="evenodd" clip-rule="evenodd" d="M0.0683594 14.7944C0.0683594 19.8782 4.18965 23.9995 9.27351 23.9995C14.3574 23.9995 18.4787 19.8782 18.4787 14.7944C18.4787 12.8026 17.8327 10.8646 16.6376 9.27127L9.93049 0.328396C9.60199 -0.109612 8.94502 -0.109575 8.61655 0.328382L1.90939 9.27127C0.714357 10.8646 0.0683594 12.8026 0.0683594 14.7944ZM9.27351 22.3986C5.0738 22.3986 1.66926 18.9941 1.66926 14.7944C1.66926 13.149 2.20291 11.5481 3.19011 10.2318L9.27351 2.1206L15.3569 10.2318C16.3441 11.5481 16.8778 13.149 16.8778 14.7944C16.8778 18.9941 13.4732 22.3986 9.27351 22.3986ZM8.65018 1.28948C8.65004 1.28929 8.64989 1.2891 8.64975 1.28891L9.27351 0.821104L8.64976 1.28892L8.65018 1.28948Z" />
    <path fill-rule="evenodd" clip-rule="evenodd" d="M4.4707 17.1993C4.4707 19.8517 6.62094 22.002 9.27339 22.002C11.9258 22.002 14.0761 19.8517 14.0761 17.1993V16.9582C14.0761 15.907 13.7476 14.882 13.1366 14.0266L9.93265 9.54105C9.60954 9.08869 8.93724 9.08869 8.61413 9.54105L5.41019 14.0266C4.79917 14.882 4.4707 15.907 4.4707 16.9582V17.1993ZM9.27339 20.4011C7.50509 20.4011 6.0716 18.9676 6.0716 17.1993V16.9582C6.0716 16.2406 6.29581 15.541 6.71289 14.9571L9.27339 11.3724L11.8339 14.9571C12.251 15.541 12.4752 16.2406 12.4752 16.9582V17.1993C12.4752 18.9676 11.0417 20.4011 9.27339 20.4011ZM8.63033 10.4721C8.6302 10.4719 8.63007 10.4717 8.62994 10.4715L9.27339 10.0119L9.91684 10.4715C9.91671 10.4717 9.91658 10.4719 9.91645 10.4721L9.91684 10.4715L9.27339 10.0119L8.62995 10.4715L8.63033 10.4721Z" />
</symbol>

<symbol id="i-comments" viewBox="0 0 22 22">
<path fill-rule="evenodd" clip-rule="evenodd" d="M5.5 1.46667C3.27245 1.46667 1.46667 3.27245 1.46667 5.5V12.1C1.46667 14.2228 3.10712 15.9632 5.18896 16.1215C5.57129 16.1506 5.86667 16.4693 5.86667 16.8528V19.8L10.56 16.28C10.6869 16.1848 10.8413 16.1333 11 16.1333H16.5C18.7276 16.1333 20.5333 14.3275 20.5333 12.1V5.5C20.5333 3.27245 18.7276 1.46667 16.5 1.46667H5.5ZM0 5.5C0 2.46243 2.46243 0 5.5 0H16.5C19.5376 0 22 2.46243 22 5.5V12.1C22 15.1376 19.5376 17.6 16.5 17.6H11.2444L5.57333 21.8533C5.35112 22.02 5.05382 22.0468 4.80538 21.9226C4.55693 21.7984 4.4 21.5444 4.4 21.2667V17.4899C1.88926 16.98 0 14.7609 0 12.1V5.5Z" />
</symbol>

<symbol id="i-money" viewBox="0 0 24 18">
<path fill-rule="evenodd" clip-rule="evenodd" d="M20.9942 1.52944C18.5994 1.52944 16.2148 1.84192 13.9009 2.45897L10.4629 3.37577C8.03028 4.02446 5.52344 4.35297 3.00583 4.35297L1.41176 4.35297V15.6471H3.00583C5.40063 15.6471 7.78519 15.3346 10.0991 14.7176L13.5371 13.8008C15.9697 13.1521 18.4766 12.8236 20.9942 12.8236H22.5882V1.52944H20.9942ZM13.5371 1.09488C15.9697 0.446183 18.4766 0.117676 20.9942 0.117676H22.5882C23.3679 0.117676 24 0.749744 24 1.52944V12.8236C24 13.6033 23.3679 14.2353 22.5882 14.2353H20.9942C18.5994 14.2353 16.2148 14.5478 13.9009 15.1649L10.4629 16.0817C8.03028 16.7303 5.52344 17.0589 3.00583 17.0589H1.41176C0.632069 17.0589 0 16.4268 0 15.6471V4.35297C0 3.57327 0.632068 2.94121 1.41176 2.94121H3.00583C5.40063 2.94121 7.78519 2.62872 10.0991 2.01167L13.5371 1.09488Z" />
<path fill-rule="evenodd" clip-rule="evenodd" d="M20.9942 1.52944C18.5994 1.52944 16.2148 1.84192 13.9009 2.45897L10.4629 3.37577C8.03028 4.02446 5.52344 4.35297 3.00583 4.35297L1.41176 4.35297V15.6471H3.00583C5.40063 15.6471 7.78519 15.3346 10.0991 14.7176L13.5371 13.8008C15.9697 13.1521 18.4766 12.8236 20.9942 12.8236H22.5882V1.52944H20.9942ZM13.5371 1.09488C15.9697 0.446183 18.4766 0.117676 20.9942 0.117676H22.5882C23.3679 0.117676 24 0.749744 24 1.52944V12.8236C24 13.6033 23.3679 14.2353 22.5882 14.2353H20.9942C18.5994 14.2353 16.2148 14.5478 13.9009 15.1649L10.4629 16.0817C8.03028 16.7303 5.52344 17.0589 3.00583 17.0589H1.41176C0.632069 17.0589 0 16.4268 0 15.6471V4.35297C0 3.57327 0.632068 2.94121 1.41176 2.94121H3.00583C5.40063 2.94121 7.78519 2.62872 10.0991 2.01167L13.5371 1.09488Z" />
<path fill-rule="evenodd" clip-rule="evenodd" d="M20.4963 1.53394C20.6528 2.61382 21.5077 3.46751 22.5882 3.62207V1.52944H20.9942C20.8281 1.52944 20.6622 1.53094 20.4963 1.53394ZM19.751 0.144389C20.1649 0.126593 20.5794 0.117676 20.9942 0.117676H22.5882C23.3679 0.117676 24 0.749744 24 1.52944V4.33358C24 4.69342 23.7293 4.99565 23.3717 5.03519C23.2301 5.05084 23.0864 5.05885 22.9412 5.05885C20.797 5.05885 19.0588 3.32066 19.0588 1.1765C19.0588 1.04212 19.0657 0.909107 19.0791 0.777838C19.1147 0.42916 19.4008 0.159444 19.751 0.144389ZM4.18277 2.91604C4.55163 2.90025 4.87034 3.17137 4.9139 3.53799C4.93193 3.68976 4.94118 3.84397 4.94118 4.00003C4.94118 6.14419 3.20299 7.88238 1.05882 7.88238C0.913562 7.88238 0.769909 7.87437 0.628325 7.85872C0.27067 7.81918 0 7.51694 0 7.15711V4.35297C0 3.57327 0.632068 2.94121 1.41176 2.94121H3.00583C3.3985 2.94121 3.79091 2.9328 4.18277 2.91604ZM3.505 4.34866C3.33867 4.35153 3.17227 4.35297 3.00583 4.35297L1.41176 4.35297V6.4456C2.49521 6.29062 3.35189 5.43271 3.505 4.34866ZM20.495 12.8279C20.6613 12.825 20.8277 12.8236 20.9942 12.8236H22.5882V10.7309C21.5048 10.8859 20.6481 11.7438 20.495 12.8279ZM19.0588 13.1765C19.0588 11.0323 20.797 9.29415 22.9412 9.29415C23.0864 9.29415 23.2301 9.30215 23.3717 9.31781C23.7293 9.35734 24 9.65958 24 10.0194V12.8236C24 13.6033 23.3679 14.2353 22.5882 14.2353H20.9942C20.6015 14.2353 20.2091 14.2437 19.8172 14.2605C19.4484 14.2763 19.1297 14.0052 19.0861 13.6385C19.0681 13.4868 19.0588 13.3326 19.0588 13.1765ZM1.41176 13.5545V15.6471H3.00583C3.17185 15.6471 3.33783 15.6456 3.50374 15.6426C3.34725 14.5627 2.49227 13.709 1.41176 13.5545ZM0.628321 12.1413C0.769913 12.1257 0.913567 12.1177 1.05882 12.1177C3.20299 12.1177 4.94118 13.8559 4.94118 16C4.94118 16.1344 4.93432 16.2674 4.9209 16.3987C4.88526 16.7474 4.59917 17.0171 4.249 17.0321C3.83509 17.0499 3.42061 17.0589 3.00583 17.0589H1.41176C0.632068 17.0589 0 16.4268 0 15.6471V12.8429C0 12.4831 0.270668 12.1809 0.628321 12.1413Z" />
<path fill-rule="evenodd" clip-rule="evenodd" d="M20.4963 1.53394C20.6528 2.61382 21.5077 3.46751 22.5882 3.62207V1.52944H20.9942C20.8281 1.52944 20.6622 1.53094 20.4963 1.53394ZM19.751 0.144389C20.1649 0.126593 20.5794 0.117676 20.9942 0.117676H22.5882C23.3679 0.117676 24 0.749744 24 1.52944V4.33358C24 4.69342 23.7293 4.99565 23.3717 5.03519C23.2301 5.05084 23.0864 5.05885 22.9412 5.05885C20.797 5.05885 19.0588 3.32066 19.0588 1.1765C19.0588 1.04212 19.0657 0.909107 19.0791 0.777838C19.1147 0.42916 19.4008 0.159444 19.751 0.144389ZM4.18277 2.91604C4.55163 2.90025 4.87034 3.17137 4.9139 3.53799C4.93193 3.68976 4.94118 3.84397 4.94118 4.00003C4.94118 6.14419 3.20299 7.88238 1.05882 7.88238C0.913562 7.88238 0.769909 7.87437 0.628325 7.85872C0.27067 7.81918 0 7.51694 0 7.15711V4.35297C0 3.57327 0.632068 2.94121 1.41176 2.94121H3.00583C3.3985 2.94121 3.79091 2.9328 4.18277 2.91604ZM3.505 4.34866C3.33867 4.35153 3.17227 4.35297 3.00583 4.35297L1.41176 4.35297V6.4456C2.49521 6.29062 3.35189 5.43271 3.505 4.34866ZM20.495 12.8279C20.6613 12.825 20.8277 12.8236 20.9942 12.8236H22.5882V10.7309C21.5048 10.8859 20.6481 11.7438 20.495 12.8279ZM19.0588 13.1765C19.0588 11.0323 20.797 9.29415 22.9412 9.29415C23.0864 9.29415 23.2301 9.30215 23.3717 9.31781C23.7293 9.35734 24 9.65958 24 10.0194V12.8236C24 13.6033 23.3679 14.2353 22.5882 14.2353H20.9942C20.6015 14.2353 20.2091 14.2437 19.8172 14.2605C19.4484 14.2763 19.1297 14.0052 19.0861 13.6385C19.0681 13.4868 19.0588 13.3326 19.0588 13.1765ZM1.41176 13.5545V15.6471H3.00583C3.17185 15.6471 3.33783 15.6456 3.50374 15.6426C3.34725 14.5627 2.49227 13.709 1.41176 13.5545ZM0.628321 12.1413C0.769913 12.1257 0.913567 12.1177 1.05882 12.1177C3.20299 12.1177 4.94118 13.8559 4.94118 16C4.94118 16.1344 4.93432 16.2674 4.9209 16.3987C4.88526 16.7474 4.59917 17.0171 4.249 17.0321C3.83509 17.0499 3.42061 17.0589 3.00583 17.0589H1.41176C0.632068 17.0589 0 16.4268 0 15.6471V12.8429C0 12.4831 0.270668 12.1809 0.628321 12.1413Z" />
<path fill-rule="evenodd" clip-rule="evenodd" d="M9.97219 5.08528C11.2151 4.12847 12.9465 4.12847 14.1894 5.08528C15.0395 5.73968 15.5376 6.75167 15.5376 7.82446V9.35188C15.5376 10.4247 15.0395 11.4367 14.1894 12.0911C12.9465 13.0479 11.2151 13.0479 9.97219 12.0911C9.1221 11.4367 8.62402 10.4247 8.62402 9.35188V7.82446C8.62402 6.75167 9.12211 5.73968 9.97219 5.08528ZM13.3283 6.20397C12.5929 5.63793 11.5687 5.63793 10.8334 6.20397C10.3305 6.59111 10.0358 7.1898 10.0358 7.82446V9.35188C10.0358 9.98654 10.3305 10.5852 10.8334 10.9724C11.5687 11.5384 12.5929 11.5384 13.3283 10.9724C13.8312 10.5852 14.1258 9.98654 14.1258 9.35188V7.82446C14.1258 7.1898 13.8312 6.59111 13.3283 6.20397Z" />
<path fill-rule="evenodd" clip-rule="evenodd" d="M9.97219 5.08528C11.2151 4.12847 12.9465 4.12847 14.1894 5.08528C15.0395 5.73968 15.5376 6.75167 15.5376 7.82446V9.35188C15.5376 10.4247 15.0395 11.4367 14.1894 12.0911C12.9465 13.0479 11.2151 13.0479 9.97219 12.0911C9.1221 11.4367 8.62402 10.4247 8.62402 9.35188V7.82446C8.62402 6.75167 9.12211 5.73968 9.97219 5.08528ZM13.3283 6.20397C12.5929 5.63793 11.5687 5.63793 10.8334 6.20397C10.3305 6.59111 10.0358 7.1898 10.0358 7.82446V9.35188C10.0358 9.98654 10.3305 10.5852 10.8334 10.9724C11.5687 11.5384 12.5929 11.5384 13.3283 10.9724C13.8312 10.5852 14.1258 9.98654 14.1258 9.35188V7.82446C14.1258 7.1898 13.8312 6.59111 13.3283 6.20397Z" />
<path fill-rule="evenodd" clip-rule="evenodd" d="M4.30382 8.4597C4.88734 8.0105 5.70016 8.0105 6.28368 8.4597C6.68277 8.76691 6.9166 9.24201 6.9166 9.74565V10.2548C6.9166 10.7584 6.68277 11.2335 6.28368 11.5407C5.70016 11.9899 4.88734 11.9899 4.30382 11.5407C3.90473 11.2335 3.6709 10.7584 3.6709 10.2548V9.74565C3.6709 9.24201 3.90473 8.76691 4.30382 8.4597ZM5.42251 9.57839C5.34661 9.51996 5.24089 9.51996 5.16499 9.57839C5.11308 9.61835 5.08266 9.68014 5.08266 9.74565V10.2548C5.08266 10.3203 5.11308 10.3821 5.16499 10.4221C5.24089 10.4805 5.34661 10.4805 5.42251 10.4221C5.47442 10.3821 5.50483 10.3203 5.50483 10.2548V9.74565C5.50483 9.68014 5.47442 9.61835 5.42251 9.57839Z" />
<path fill-rule="evenodd" clip-rule="evenodd" d="M4.30382 8.4597C4.88734 8.0105 5.70016 8.0105 6.28368 8.4597C6.68277 8.76691 6.9166 9.24201 6.9166 9.74565V10.2548C6.9166 10.7584 6.68277 11.2335 6.28368 11.5407C5.70016 11.9899 4.88734 11.9899 4.30382 11.5407C3.90473 11.2335 3.6709 10.7584 3.6709 10.2548V9.74565C3.6709 9.24201 3.90473 8.76691 4.30382 8.4597ZM5.42251 9.57839C5.34661 9.51996 5.24089 9.51996 5.16499 9.57839C5.11308 9.61835 5.08266 9.68014 5.08266 9.74565V10.2548C5.08266 10.3203 5.11308 10.3821 5.16499 10.4221C5.24089 10.4805 5.34661 10.4805 5.42251 10.4221C5.47442 10.3821 5.50483 10.3203 5.50483 10.2548V9.74565C5.50483 9.68014 5.47442 9.61835 5.42251 9.57839Z" />
<path fill-rule="evenodd" clip-rule="evenodd" d="M17.7159 5.63584C18.2994 5.18665 19.1123 5.18665 19.6958 5.63584C20.0949 5.94306 20.3287 6.41816 20.3287 6.9218V7.43094C20.3287 7.93458 20.0949 8.40968 19.6958 8.7169C19.1123 9.16609 18.2994 9.16609 17.7159 8.7169C17.3168 8.40968 17.083 7.93458 17.083 7.43094V6.9218C17.083 6.41816 17.3168 5.94306 17.7159 5.63584ZM18.8346 6.75454C18.7587 6.69611 18.653 6.69611 18.5771 6.75454C18.5252 6.7945 18.4948 6.85629 18.4948 6.9218V7.43094C18.4948 7.49645 18.5252 7.55825 18.5771 7.59821C18.653 7.65663 18.7587 7.65663 18.8346 7.59821C18.8865 7.55825 18.9169 7.49645 18.9169 7.43094V6.9218C18.9169 6.85629 18.8865 6.7945 18.8346 6.75454Z" />
<path fill-rule="evenodd" clip-rule="evenodd" d="M17.7159 5.63584C18.2994 5.18665 19.1123 5.18665 19.6958 5.63584C20.0949 5.94306 20.3287 6.41816 20.3287 6.9218V7.43094C20.3287 7.93458 20.0949 8.40968 19.6958 8.7169C19.1123 9.16609 18.2994 9.16609 17.7159 8.7169C17.3168 8.40968 17.083 7.93458 17.083 7.43094V6.9218C17.083 6.41816 17.3168 5.94306 17.7159 5.63584ZM18.8346 6.75454C18.7587 6.69611 18.653 6.69611 18.5771 6.75454C18.5252 6.7945 18.4948 6.85629 18.4948 6.9218V7.43094C18.4948 7.49645 18.5252 7.55825 18.5771 7.59821C18.653 7.65663 18.7587 7.65663 18.8346 7.59821C18.8865 7.55825 18.9169 7.49645 18.9169 7.43094V6.9218C18.9169 6.85629 18.8865 6.7945 18.8346 6.75454Z" />
</symbol>

<symbol id="i-views" viewBox="0 0 27 17">
<path fill-rule="evenodd" clip-rule="evenodd" d="M1.91847 5.30829C4.61483 1.95379 8.70411 0 13.0287 0C17.3534 0 21.4426 1.95379 24.139 5.30829C24.8434 6.18457 25.4327 7.13163 25.9019 8.12724L26.0571 8.45677L25.9019 8.7863C25.4327 9.78219 24.8432 10.7295 24.1387 11.606C21.4423 14.9605 17.353 16.9143 13.0284 16.9143C8.70378 16.9143 4.6145 14.9605 1.91814 11.606C1.21378 10.7297 0.624436 9.78266 0.155281 8.78705L0 8.45752L0.155261 8.12798C0.624474 7.13209 1.21394 6.18478 1.91847 5.30829ZM13.0287 1.55628C9.18149 1.55628 5.5436 3.2944 3.14488 6.27861C2.59623 6.96118 2.12611 7.69186 1.73753 8.45747C2.12605 9.22284 2.59605 9.9533 3.14455 10.6357C5.54327 13.6199 9.18116 15.358 13.0284 15.358C16.8757 15.358 20.5135 13.6199 22.9123 10.6357C23.4609 9.95311 23.931 9.22243 24.3196 8.45682C23.9311 7.69144 23.4611 6.96098 22.9126 6.27861C20.5139 3.2944 16.876 1.55628 13.0287 1.55628Z"/>
<path fill-rule="evenodd" clip-rule="evenodd" d="M10.8482 12.9483C12.2258 13.6064 13.8305 13.6064 15.208 12.9483C16.5856 12.2901 17.5861 11.0454 17.9264 9.56646C18.2666 8.08755 17.9095 6.53541 16.9562 5.34942C16.0029 4.16342 14.5571 3.47266 13.0281 3.47266C11.4992 3.47266 10.0534 4.16342 9.10007 5.34942C8.14677 6.53541 7.78969 8.08755 8.12992 9.56646C8.47015 11.0454 9.47066 12.2901 10.8482 12.9483ZM14.5274 11.5461C13.58 11.9988 12.4763 11.9988 11.5288 11.5461C10.5814 11.0934 9.89323 10.2373 9.65922 9.22015C9.42522 8.20298 9.67081 7.13545 10.3265 6.31974C10.9821 5.50403 11.9765 5.02894 13.0281 5.02894C14.0797 5.02894 15.0741 5.50403 15.7298 6.31974C16.3855 7.13545 16.6311 8.20298 16.3971 9.22015C16.163 10.2373 15.4749 11.0934 14.5274 11.5461Z"/>
</symbol>


<symbol id="i-sign" viewBox="0 0 195 282" >
    <path d="M58.7535 191.577L121.707 191.555L121.705 185.153C121.698 163.946 131.697 153.272 151.033 141.928C177.036 126.714 194.768 107.635 194.757 75.2245C194.739 25.0749 152.45 0.0149783 95.4978 0.0351027C43.6142 0.0534362 0.542178 24.61 0.029409 83.296L68.3183 83.2718C68.3129 67.9335 80.5797 57.1256 94.9844 57.1205C108.322 57.1158 118.995 66.1817 119 79.5194C119.005 94.4576 106.071 103.665 89.1362 114.741C69.2676 127.686 58.7357 141.294 58.7512 185.175L58.7535 191.577ZM91.3291 281.195C110.935 281.188 128.402 264.643 128.661 243.836C128.387 223.563 110.909 207.03 91.3028 207.037C70.6294 207.045 53.6964 223.589 53.9704 243.863C53.711 264.669 70.6557 281.202 91.3291 281.195Z"/>
</symbol>


<symbol id="i-share" viewBox="0 0 24 20">
    <path fill-rule="evenodd" clip-rule="evenodd" d="M15.6281 1.63071C15.13 1.1644 14.2783 1.49466 14.2783 2.15412L14.2783 4.30388C14.2783 4.69066 13.9453 5.00517 13.5322 5.00865C12.3029 5.01901 11.0749 5.2042 9.89132 5.56422C7.45394 6.3056 5.32985 7.75028 3.82347 9.69122C2.31709 11.6322 1.50576 13.9697 1.50576 16.3688C1.50576 17.1137 1.58397 17.8527 1.73691 18.5757C1.74645 18.5693 1.7557 18.5603 1.7641 18.5464C2.01847 18.1248 2.29916 17.7157 2.60541 17.3211C4.29869 15.1393 6.68634 13.5154 9.42613 12.682C10.7566 12.2773 12.1369 12.0692 13.5186 12.0575C13.7195 12.0558 13.9127 12.1293 14.0554 12.2617C14.198 12.394 14.2783 12.5742 14.2783 12.7623L14.2783 14.9113C14.2783 15.5708 15.13 15.901 15.6281 15.4347L22.1359 9.34257C22.6137 8.8953 22.6137 8.17014 22.1359 7.72288L15.6281 1.63071ZM12.7725 2.15412C12.7725 0.238844 15.2462 -0.720331 16.6929 0.633975L23.2006 6.72614C24.2665 7.72389 24.2665 9.34156 23.2006 10.3393L16.6929 16.4315C15.2462 17.7858 12.7725 16.8266 12.7725 14.9113L12.7725 13.4957C11.7986 13.5612 10.831 13.7368 9.89144 14.0226C7.45407 14.764 5.32997 16.2087 3.82359 18.1496C3.55114 18.5007 3.30143 18.8647 3.07514 19.2397C2.75274 19.774 2.15373 20.0296 1.59492 19.9973C1.01375 19.9637 0.42508 19.606 0.277522 18.9317C0.0939473 18.0928 0 17.2344 0 16.3688C0 13.672 0.911999 11.0444 2.60529 8.86268C4.29857 6.68092 6.68622 5.05698 9.42601 4.22362C10.5169 3.89181 11.6413 3.69211 12.7725 3.62453L12.7725 2.15412Z" />
</symbol>

<symbol id="i-like" viewBox="0 0 12 10">
<path fill-rule="evenodd" clip-rule="evenodd" d="M3.34171 0.804851C2.677 0.804851 2.03952 1.05924 1.5695 1.51206C1.09948 1.96487 0.835426 2.57902 0.835426 3.2194C0.835426 3.85978 1.09948 4.47393 1.5695 4.92675L4.51188 7.76145L4.52314 7.77236L5.99998 9.19515C5.99997 9.19516 5.99999 9.19514 5.99998 9.19515L10.4305 4.92678C10.9005 4.47397 11.1646 3.85982 11.1646 3.21944C11.1646 2.57906 10.9005 1.96491 10.4305 1.51209C9.96048 1.05927 9.323 0.804885 8.65829 0.804885C7.99359 0.804885 7.3561 1.05928 6.88609 1.51209L6.29539 2.08117C6.21705 2.15664 6.1108 2.19904 6.00002 2.19904C5.88923 2.19904 5.78299 2.15664 5.70465 2.08117L5.11391 1.51206C4.64389 1.05924 4.00641 0.804851 3.34171 0.804851ZM0.978763 0.942941C1.60545 0.339186 2.45543 -9.59457e-08 3.34171 0C4.22798 2.15878e-07 5.07796 0.339187 5.70465 0.942942L6.00002 1.2275L6.29535 0.942977C6.92204 0.339222 7.77202 3.47563e-05 8.65829 3.45404e-05C9.54457 3.44205e-05 10.3945 0.33922 11.0212 0.942976C11.6479 1.54673 12 2.3656 12 3.21944C12 4.07328 11.6479 4.89214 11.0212 5.4959L6.5918 9.76322C6.59144 9.76357 6.59108 9.76392 6.59072 9.76426C6.26446 10.0786 5.7355 10.0786 5.40925 9.76426L3.93241 8.34148L3.918 8.32752L0.978764 5.49587C0.352072 4.89211 0 4.07324 0 3.2194C0 2.36556 0.352071 1.5467 0.978763 0.942941Z"/>
<path fill-rule="evenodd" clip-rule="evenodd" d="M3.34171 0.804851C2.677 0.804851 2.03952 1.05924 1.5695 1.51206C1.09948 1.96487 0.835426 2.57902 0.835426 3.2194C0.835426 3.85978 1.09948 4.47393 1.5695 4.92675L4.51188 7.76145L4.52314 7.77236L5.99998 9.19515C5.99997 9.19516 5.99999 9.19514 5.99998 9.19515L10.4305 4.92678C10.9005 4.47397 11.1646 3.85982 11.1646 3.21944C11.1646 2.57906 10.9005 1.96491 10.4305 1.51209C9.96048 1.05927 9.323 0.804885 8.65829 0.804885C7.99359 0.804885 7.3561 1.05928 6.88609 1.51209L6.29539 2.08117C6.21705 2.15664 6.1108 2.19904 6.00002 2.19904C5.88923 2.19904 5.78299 2.15664 5.70465 2.08117L5.11391 1.51206C4.64389 1.05924 4.00641 0.804851 3.34171 0.804851ZM0.978763 0.942941C1.60545 0.339186 2.45543 -9.59457e-08 3.34171 0C4.22798 2.15878e-07 5.07796 0.339187 5.70465 0.942942L6.00002 1.2275L6.29535 0.942977C6.92204 0.339222 7.77202 3.47563e-05 8.65829 3.45404e-05C9.54457 3.44205e-05 10.3945 0.33922 11.0212 0.942976C11.6479 1.54673 12 2.3656 12 3.21944C12 4.07328 11.6479 4.89214 11.0212 5.4959L6.5918 9.76322C6.59144 9.76357 6.59108 9.76392 6.59072 9.76426C6.26446 10.0786 5.7355 10.0786 5.40925 9.76426L3.93241 8.34148L3.918 8.32752L0.978764 5.49587C0.352072 4.89211 0 4.07324 0 3.2194C0 2.36556 0.352071 1.5467 0.978763 0.942941Z"/>
</symbol>

<symbol id="i-slider-arrow-left" viewBox="0 0 10 18">
<path fill-rule="evenodd" clip-rule="evenodd" d="M9.28033 0.96967C8.98744 0.676777 8.51256 0.676777 8.21967 0.96967L0.71967 8.46967C0.426777 8.76256 0.426777 9.23744 0.71967 9.53033L8.21967 17.0303C8.51256 17.3232 8.98744 17.3232 9.28033 17.0303C9.57322 16.7374 9.57322 16.2626 9.28033 15.9697L2.31066 9L9.28033 2.03033C9.57322 1.73744 9.57322 1.26256 9.28033 0.96967Z"/>
</symbol>

<symbol id="i-slider-arrow-right" viewBox="0 0 10 18">
    <path fill-rule="evenodd" clip-rule="evenodd" d="M0.71967 0.96967C1.01256 0.676777 1.48744 0.676777 1.78033 0.96967L9.28033 8.46967C9.57322 8.76256 9.57322 9.23744 9.28033 9.53033L1.78033 17.0303C1.48744 17.3232 1.01256 17.3232 0.71967 17.0303C0.426777 16.7374 0.426777 16.2626 0.71967 15.9697L7.68934 9L0.71967 2.03033C0.426777 1.73744 0.426777 1.26256 0.71967 0.96967Z" />
</symbol>

<symbol id="i-photo" viewBox="0 0 18 16" >
    <path fill-rule="evenodd" clip-rule="evenodd" d="M5.30128 1.2559C5.47634 0.800637 5.91531 0.5 6.40501 0.5L11.8438 0.5C12.3335 0.5 12.7725 0.800636 12.9476 1.2559L13.4486 2.55884L16.3867 2.55884C17.2026 2.55884 17.864 3.21725 17.864 4.02943L17.864 14.0294C17.864 14.8416 17.2026 15.5 16.3867 15.5L1.61399 15.5C0.798115 15.5 0.136719 14.8416 0.136719 14.0294L0.136719 4.02943C0.136719 3.21725 0.798116 2.55884 1.61399 2.55884L4.80028 2.55884L5.30128 1.2559ZM11.8438 1.67647L6.40501 1.67647L5.61335 3.73531L1.61399 3.73531C1.45082 3.73531 1.31854 3.86699 1.31854 4.02943L1.31854 14.0294C1.31854 14.1919 1.45082 14.3235 1.61399 14.3235L16.3867 14.3235C16.5499 14.3235 16.6822 14.1919 16.6822 14.0294L16.6822 4.02943C16.6822 3.86699 16.5499 3.73531 16.3867 3.73531L12.6355 3.73531L11.8438 1.67647Z" />
    <path fill-rule="evenodd" clip-rule="evenodd" d="M6.9137 5.1587C8.20486 4.41325 9.79564 4.41325 11.0868 5.1587C12.378 5.90415 13.1734 7.28181 13.1734 8.77271C13.1734 10.2636 12.378 11.6413 11.0868 12.3867C9.79564 13.1322 8.20486 13.1322 6.9137 12.3867C5.62254 11.6413 4.82715 10.2636 4.82715 8.77271C4.82715 7.28181 5.62254 5.90415 6.9137 5.1587ZM10.4959 6.18218C9.57039 5.64784 8.43012 5.64784 7.50461 6.18218C6.5791 6.71653 6.00897 7.70403 6.00897 8.77271C6.00897 9.8414 6.5791 10.8289 7.50461 11.3632C8.43012 11.8976 9.57039 11.8976 10.4959 11.3632C11.4214 10.8289 11.9915 9.8414 11.9915 8.77271C11.9915 7.70403 11.4214 6.71653 10.4959 6.18218Z" />
</symbol>

<symbol id="i-stories" viewBox="0 0 15 15">
    <path fill-rule="evenodd" clip-rule="evenodd" d="M8.25 1.125H3C1.96447 1.125 1.125 1.96447 1.125 3V12C1.125 13.0355 1.96447 13.875 3 13.875H8.25C9.28553 13.875 10.125 13.0355 10.125 12V3C10.125 1.96447 9.28553 1.125 8.25 1.125ZM3 0C1.34315 0 0 1.34315 0 3V12C0 13.6569 1.34315 15 3 15H8.25C9.90685 15 11.25 13.6569 11.25 12V3C11.25 1.34315 9.90685 0 8.25 0H3Z" />
    <path fill-rule="evenodd" clip-rule="evenodd" d="M10.125 14.25H11.25C12.9069 14.25 14.25 13.0412 14.25 11.55V3.45C14.25 1.95883 12.9069 0.75 11.25 0.75H10.125V1.7625H11.25C12.2855 1.7625 13.125 2.51802 13.125 3.45V11.55C13.125 12.482 12.2855 13.2375 11.25 13.2375H10.125V14.25Z" />
</symbol>

<symbol id="i-play" viewBox="0 0 72 72">
    <path fill-rule="evenodd" clip-rule="evenodd" d="M24.4287 23.0881C24.4287 21.1587 26.5632 19.9491 28.2787 20.9064L51.4179 33.8184C53.1466 34.7831 53.1466 37.2173 51.4179 38.1819L28.2786 51.0939C26.5632 52.0512 24.4287 50.8416 24.4287 48.9122L24.4287 23.0881ZM50.1412 36.0002L27.002 23.0881L27.002 48.9122L50.1412 36.0002Z" />
    <path fill-rule="evenodd" clip-rule="evenodd" d="M36 69.4286C54.4621 69.4286 69.4286 54.4621 69.4286 36C69.4286 17.5379 54.4621 2.57143 36 2.57143C17.5379 2.57143 2.57143 17.5379 2.57143 36C2.57143 54.4621 17.5379 69.4286 36 69.4286ZM36 72C55.8823 72 72 55.8823 72 36C72 16.1177 55.8823 0 36 0C16.1177 0 0 16.1177 0 36C0 55.8823 16.1177 72 36 72Z" />
</symbol>

<symbol id="i-link" viewBox="0 0 20 26">
    <path fill-rule="evenodd" clip-rule="evenodd" d="M4.50005 22.5264C2.10859 21.1457 1.18898 18.2613 2.44605 16.084L4.37565 12.7418C4.55523 12.4308 4.97776 12.3385 5.3194 12.5358C5.66104 12.733 5.79241 13.1451 5.61283 13.4561L3.68323 16.7983C2.78532 18.3535 3.44218 20.4138 5.15037 21.4C6.85856 22.3862 8.97122 21.9249 9.86913 20.3697L11.8201 16.9905C12.6862 15.4904 12.1056 13.5199 10.5305 12.4976C10.1997 12.2829 10.0927 11.8662 10.2916 11.567C10.4904 11.2677 10.9197 11.1992 11.2506 11.4139C13.457 12.846 14.2701 15.6042 13.0573 17.7048L11.1063 21.084C9.84923 23.2613 6.89151 23.9071 4.50005 22.5264Z" />
    <path fill-rule="evenodd" clip-rule="evenodd" d="M15.5 3.47376C17.8914 4.85447 18.811 7.73882 17.5539 9.91613L15.6244 13.2583C15.4448 13.5693 15.0222 13.6616 14.6806 13.4643C14.339 13.2671 14.2076 12.855 14.3872 12.544L16.3168 9.20184C17.2147 7.64662 16.5578 5.58637 14.8496 4.60015C13.1414 3.61392 11.0288 4.07519 10.1309 5.63041L8.17991 9.00959C7.31382 10.5097 7.89439 12.4802 9.46947 13.5025C9.80028 13.7172 9.90727 14.1339 9.70844 14.4331C9.50961 14.7324 9.08026 14.8009 8.74945 14.5862C6.54304 13.1541 5.72994 10.3959 6.94273 8.2953L8.89369 4.91613C10.1508 2.73882 13.1085 2.09304 15.5 3.47376Z" />
</symbol>

<symbol id="i-show-password" viewBox="0 0 27 18">
<path fill-rule="evenodd" clip-rule="evenodd" d="M1.92897 5.62256C4.62533 2.26806 8.71461 0.31427 13.0392 0.31427C17.3639 0.31427 21.4531 2.26806 24.1495 5.62256C24.8539 6.49884 25.4432 7.4459 25.9124 8.44151L26.0676 8.77104L25.9124 9.10057C25.4432 10.0965 24.8537 11.0438 24.1492 11.9203C21.4528 15.2748 17.3635 17.2286 13.0389 17.2286C8.71428 17.2286 4.625 15.2748 1.92864 11.9203C1.22428 11.044 0.634934 10.0969 0.165779 9.10132L0.010498 8.77179L0.165759 8.44225C0.634972 7.44636 1.22444 6.49905 1.92897 5.62256ZM13.0392 1.87055C9.19198 1.87055 5.5541 3.60867 3.15537 6.59288C2.60673 7.27545 2.13661 8.00613 1.74802 8.77174C2.13655 9.53711 2.60655 10.2676 3.15504 10.9499C5.55377 13.9342 9.19165 15.6723 13.0389 15.6723C16.8862 15.6723 20.524 13.9342 22.9228 10.9499C23.4714 10.2674 23.9415 9.5367 24.3301 8.77109C23.9416 8.00571 23.4716 7.27525 22.9231 6.59288C20.5244 3.60867 16.8865 1.87055 13.0392 1.87055Z" />
<path fill-rule="evenodd" clip-rule="evenodd" d="M1.92897 5.62256C4.62533 2.26806 8.71461 0.31427 13.0392 0.31427C17.3639 0.31427 21.4531 2.26806 24.1495 5.62256C24.8539 6.49884 25.4432 7.4459 25.9124 8.44151L26.0676 8.77104L25.9124 9.10057C25.4432 10.0965 24.8537 11.0438 24.1492 11.9203C21.4528 15.2748 17.3635 17.2286 13.0389 17.2286C8.71428 17.2286 4.625 15.2748 1.92864 11.9203C1.22428 11.044 0.634934 10.0969 0.165779 9.10132L0.010498 8.77179L0.165759 8.44225C0.634972 7.44636 1.22444 6.49905 1.92897 5.62256ZM13.0392 1.87055C9.19198 1.87055 5.5541 3.60867 3.15537 6.59288C2.60673 7.27545 2.13661 8.00613 1.74802 8.77174C2.13655 9.53711 2.60655 10.2676 3.15504 10.9499C5.55377 13.9342 9.19165 15.6723 13.0389 15.6723C16.8862 15.6723 20.524 13.9342 22.9228 10.9499C23.4714 10.2674 23.9415 9.5367 24.3301 8.77109C23.9416 8.00571 23.4716 7.27525 22.9231 6.59288C20.5244 3.60867 16.8865 1.87055 13.0392 1.87055Z" />
<path fill-rule="evenodd" clip-rule="evenodd" d="M10.8588 13.2625C12.2364 13.9207 13.8411 13.9207 15.2187 13.2625C16.5962 12.6043 17.5967 11.3596 17.937 9.88068C18.2772 8.40177 17.9201 6.84963 16.9668 5.66364C16.0135 4.47765 14.5677 3.78688 13.0388 3.78688C11.5098 3.78688 10.064 4.47765 9.11069 5.66364C8.15739 6.84963 7.80031 8.40177 8.14054 9.88068C8.48077 11.3596 9.48128 12.6043 10.8588 13.2625ZM14.5381 11.8603C13.5906 12.313 12.4869 12.313 11.5394 11.8603C10.592 11.4076 9.90385 10.5515 9.66984 9.53438C9.43584 8.51721 9.68143 7.44967 10.3371 6.63396C10.9928 5.81826 11.9871 5.34316 13.0388 5.34316C14.0904 5.34316 15.0847 5.81826 15.7404 6.63396C16.3961 7.44967 16.6417 8.51721 16.4077 9.53438C16.1737 10.5515 15.4855 11.4076 14.5381 11.8603Z" />
<path fill-rule="evenodd" clip-rule="evenodd" d="M10.8588 13.2625C12.2364 13.9207 13.8411 13.9207 15.2187 13.2625C16.5962 12.6043 17.5967 11.3596 17.937 9.88068C18.2772 8.40177 17.9201 6.84963 16.9668 5.66364C16.0135 4.47765 14.5677 3.78688 13.0388 3.78688C11.5098 3.78688 10.064 4.47765 9.11069 5.66364C8.15739 6.84963 7.80031 8.40177 8.14054 9.88068C8.48077 11.3596 9.48128 12.6043 10.8588 13.2625ZM14.5381 11.8603C13.5906 12.313 12.4869 12.313 11.5394 11.8603C10.592 11.4076 9.90385 10.5515 9.66984 9.53438C9.43584 8.51721 9.68143 7.44967 10.3371 6.63396C10.9928 5.81826 11.9871 5.34316 13.0388 5.34316C14.0904 5.34316 15.0847 5.81826 15.7404 6.63396C16.3961 7.44967 16.6417 8.51721 16.4077 9.53438C16.1737 10.5515 15.4855 11.4076 14.5381 11.8603Z" />
</symbol>
 

</svg>
